Patient5_TMGait_0pt45_1_right_03_EMG.mot
version=1
nRows=23
nColumns=33
inDegrees=no
endheader
time	1LAddLong	2LGlutMax	3LGlutMed	4LIliopsoas	5LSemiMemb	6LBicFemLong	7LRecFem	8LTensFascLat	9LVastMed	10LVasLat	11LGasMed	12lGasLat	13LTibAnt	14LPeroneusLong	15LSol	16LTibPost	17RAddLong	18RGlutMax	19RGlutMed	20RIliopsoas	21RSemiMemb	22RBicFemLong	23RRecFem	24RTensFascLat	25RVastMed	26RVasLat	27RGasMed	28RGasLat	29RTibAnt	30RPeroneusLong	31RSol	32RTibPost
6.218	-0.011597	0.009766	-0.042419	0.015411	0.019531	-0.13229	0.007629	-0.1088	-0.010071	0.013428	-0.04303	-0.013733	0.009918	-0.041046	0.022125	0.035095	0.007935	-0.003357	0.078125	0.007935	0.06012	-0.032501	0.001221	-0.05249	-0.00824	0.002899	0.024414	-0.010071	0.015259	0.016022	-0.031891	-0.005798
6.219	-0.029449	0.011749	-0.08667	0.00351	0.018463	-0.16434	-0.001221	-0.15595	-0.002136	0.010223	0.098572	-0.005341	0.010681	-0.025024	-0.033417	0.032043	0.011902	-0.003357	0.045166	-0.33615	0.06073	-0.019073	0.000458	-0.13779	-0.00412	-0.000305	0.032806	-0.024414	0.090637	0.031128	-0.043488	-0.011597
6.22	-0.063629	0.002441	-0.063171	0.005188	0.012512	-0.11292	-0.003967	-0.12909	-0.012054	-0.001373	0.09201	0.003662	0.008392	-0.013885	-0.046234	-0.031281	0.017242	-0.001984	0.06424	0.5014	0.066376	-0.016174	0.006714	-0.2095	-0.000305	-0.000916	0.014191	-0.022125	0.097046	0.033569	-0.030212	-0.007324
6.221	-0.25101	0.007935	-0.1091	0.007782	0.003357	-0.06134	-0.002594	-0.16525	-0.001984	0.000458	-0.044556	-0.010071	-0.003662	-0.015717	-0.027771	0.1915	0.0177	-0.003204	0.058594	0.12192	0.050049	-0.004883	-0.000153	-0.26199	-0.002136	-0.002594	0.008698	-0.012207	0.030365	0.027008	-0.013885	-0.009003
6.222	-0.095673	0.010223	-0.1416	0.007019	-0.015259	-0.09079	-0.000458	-0.20187	-0.001068	-0.003052	0.041046	-0.009918	0.001984	0.00061	-0.008545	-0.046844	0.0177	-0.001526	0.009003	0.044556	0.045776	-0.007324	0.002594	-0.3215	0.002289	0.005341	-0.005798	-0.014496	-0.000916	0.007477	-0.009613	-0.000305
6.223	-0.005798	0.020142	-0.053253	0.01358	-0.013885	-0.014496	-0.001068	-0.15411	0.001678	-0.001221	-0.21194	0.004425	-0.006866	0.015411	0.00412	-0.068207	0.016785	-0.003357	-0.015411	0.06897	0.058746	-0.002136	-0.00351	-0.30441	0.000763	-0.001831	-0.022736	-0.019684	-0.031281	-0.024109	-0.023651	-0.006104
6.224	0.054169	0.017853	-0.048218	0.018158	0.005493	0.048981	0.000458	-0.10666	0.004272	0.019073	-0.41321	0.014038	-0.004272	0.007782	0.013885	0.17105	0.021057	-0.006256	-0.024872	-0.081024	0.040283	-0.005493	-0.003204	-0.15717	-0.003662	-0.008392	-0.023651	-0.002441	-0.024567	-0.026855	-0.028687	-0.007477
6.225	0.071716	0.006256	0.039978	0.007782	0.00351	0.082245	-0.000458	-0.063477	0.011292	0.007172	-0.37445	-0.026093	0.007782	-0.004272	0.032654	0.011749	0.028076	-0.001373	-0.039673	0.015869	0.051575	-0.002441	-0.004425	0.015106	0.00412	-0.011292	-0.01709	0.00351	-0.015411	-0.011444	-0.003815	0.00061
6.226	0.077667	0.002899	0.06546	-0.001831	-0.002441	0.10834	0.003967	0.038757	0.017548	0.000153	-0.079651	-0.011902	0.00885	0.020905	0.058594	-0.032349	0.012512	-0.00412	-0.027008	0.11276	0.050812	-0.005798	-0.008087	0.1503	-0.002747	0.000763	-0.012817	0.004578	0.009155	0.005035	0.012207	0.002747
6.227	0.10513	-0.006561	-0.005341	-0.008545	0.003204	0.093079	0.011902	0.01236	0.031586	0.020599	0.15442	-0.001373	-0.001831	0.04303	0.046692	-0.16312	-0.003357	-0.003662	-0.002136	-0.13214	0.037231	0.01709	-0.001373	0.22934	-0.002899	0.000916	-0.011444	0.009003	0.062561	0.023193	0.010681	0.002441
6.228	0.090179	-0.003815	-0.06012	-0.00946	0.000305	0.084229	0.010681	-0.051727	0.042267	0.02655	0.14893	-0.01358	-0.007629	0.051727	0.018158	-0.057068	-0.029449	-0.008087	0.002747	-0.043793	0.042419	0.029755	0.000153	0.29388	-0.003357	-0.003052	-0.010071	0.002289	0.024872	0.034943	0.009613	-0.00061
6.229	0.025482	0.003052	-0.034637	-0.017242	-0.006104	0.065613	0.000153	0.06485	0.040436	0.043182	0.13184	-0.015259	-0.010376	0.061798	0.032196	0.017853	-0.0383	-0.000153	-0.033112	-0.13901	0.037537	0.034485	0.000153	0.29144	0.002899	0	-0.009918	0.003204	-0.013275	0.027618	0.006104	-0.005798
6.23	0.032806	0.00946	0.042114	-0.01236	-0.006256	0.049286	0.004272	0.064545	0.041351	0.031281	0.14252	0.005341	-0.007019	0.050507	0.049591	0.037994	-0.033569	-0.004883	-0.026855	0.019226	0.051727	0.028992	0.000763	0.24445	-0.006561	0.003204	-0.007172	0.00473	-0.00473	0.029144	-0.002289	0.003815
6.231	-0.027008	-0.006409	0.01297	-0.006409	-0.015411	0.048065	0.00473	-0.042725	0.028381	0.013275	0.14923	0.031891	-0.008392	0.011749	0.055847	0.082397	-0.029297	-0.001526	-0.023651	0.14938	0.044708	0.032959	0.006104	0.16663	-0.000916	0.001526	-0.003052	-0.000916	0.013123	0.011749	-0.00412	0.01358
6.232	0.12741	-0.007477	0.027618	0.002441	0.00061	-0.002594	-0.002289	-0.068207	0.013733	0.0177	0.14877	0.023804	-0.006409	-0.045319	0.032654	-0.03006	-0.001678	-0.001831	-0.036469	-0.026398	0.04715	0.017548	0.005798	0.11261	0.00412	-0.00061	-0.003052	0.00351	0.009308	0.012512	-0.011902	-0.001678
6.233	0.075073	-0.007782	0.029602	0.009003	-0.015717	0.030823	-0.000458	-0.058289	0.014801	0.018921	0.10498	-0.006866	0.00412	-0.077209	-0.06073	0.10483	0.16663	0	0.011139	0.079041	0.051117	0.010223	0.009155	0.095673	0.003052	-0.006104	-0.003204	0.007477	0.014648	0.026703	-0.013885	-0.010223
6.234	-0.003967	-0.009613	0.01236	-0.003662	-0.012817	0.037842	0.008545	-0.030212	-0.005188	-0.00061	0.082092	-0.008087	0.008545	-0.053101	-0.11948	0.13916	-0.016632	-0.003052	-0.007172	-0.1619	0.03952	0.011597	0.013733	0.058136	-0.000305	0.009155	-0.003662	0.008545	0.016479	0.029602	-0.017548	-0.010834
6.235	0.071259	-0.006561	0.027618	0.006714	-0.011902	-0.000763	0.004425	-0.003052	-0.012207	0.006409	0.10895	-0.002594	0.016174	-0.028687	-0.070648	-0.023956	-0.036316	-0.001373	-0.02533	-0.049438	0.047607	-0.009613	0.002136	0.055542	0.011139	0.005188	0.001984	0.002441	0.019073	0.023499	-0.005341	0.002899
6.236	0.071106	-0.001221	-0.001984	0.013275	-0.017395	-0.007172	0.005646	0.019989	-0.014191	-0.004425	0.072632	-0.014648	0.011597	-0.02533	0.019073	-0.057983	-0.025024	-0.000763	0.005798	0.18127	0.04303	-0.035095	0.003815	0.035706	0.000153	0.005798	0.012817	-0.00946	0.014954	0.030823	0	-0.010071
6.237	0.032806	-0.002441	-0.046692	-0.004578	-0.011597	0.022583	0.003662	-0.032043	-0.023499	-0.000305	0.034332	-0.013885	0.011597	-0.015259	-0.031128	-0.12329	-0.010376	0	0.035858	0.059204	0.05127	-0.04425	0.001221	0.01358	0.005188	0.000916	0.002899	0.005188	0.011139	0.02594	-0.001678	-0.009613
6.238	0.025635	-0.009766	-0.047913	0.0177	-0.004272	-0.002594	-0.000916	-0.10483	-0.024872	-0.006104	0.025024	-0.013275	-0.009766	-0.001831	-0.058594	-0.17716	0.002136	-0.009613	0.010529	0.059967	0.056	-0.03418	0.001221	0.003815	0.005951	0.005798	0.00351	0.003357	-0.012817	0.016022	0.002747	-0.002136
6.239	0.095673	-0.006714	-0.01709	0.007019	-0.001373	0.026245	0.000916	-0.1149	-0.029907	-0.018158	0.016479	0.000763	-0.020447	0.002289	-0.022583	0.014038	0.012665	-0.004425	0.000916	0.022888	0.056	-0.027924	0.00412	0.001221	0.005646	-0.003967	-0.00061	-0.012512	-0.011902	-0.015106	-0.013733	-0.005798
6.24	0.14053	-0.012665	0.006256	0.010376	0.006104	0.025177	0.004578	-0.085449	-0.024872	0.005798	0.020905	0.003357	-0.007935	0.002289	-0.00351	-0.014801	0.024872	-0.006256	0.05127	-0.14954	0.065002	-0.016785	0.002441	-0.024567	0.010071	0.003662	0.001221	-0.032959	-0.00824	-0.0354	-0.02655	0.001221
